<?xml version="1.0" encoding="utf-8"?>
<!-- Generator: Adobe Illustrator 19.2.1, SVG Export Plug-In . SVG Version: 6.00 Build 0)  -->
<svg version="1.1" xmlns="http://www.w3.org/2000/svg" xmlns:xlink="http://www.w3.org/1999/xlink" x="0px" y="0px"
	 viewBox="0 0 750 500" style="enable-background:new 0 0 750 500;" xml:space="preserve">
<style type="text/css">
	.st0{fill:#F5F5F5;}
	.st1{fill:#E0E0E0;}
	.st2{fill:none;stroke:#FFFFFF;stroke-miterlimit:10;}
	.st3{opacity:0.2;}
	.st4{display:none;}
	.st5{display:inline;fill:#EBEBEB;}
	.st6{fill:#E8505B;}
	.st7{fill:#263238;}
	.st8{fill:#455A64;}
	.st9{fill:#B78876;}
	.st10{fill:#A36957;}
	.st11{opacity:0.3;}
	.st12{fill:#FAFAFA;}
	.st13{opacity:0.5;}
	.st14{fill:#FFFFFF;}
	.st15{opacity:0.6;}
</style>
<g id="Background_Complete">
	<g>
		<g>
			
				<rect x="151.5" y="143" transform="matrix(0.8312 -0.556 0.556 0.8312 -97.7997 162.6891)" class="st0" width="135" height="198.8"/>
		</g>
		<g>
			<g>
				<polygon class="st1" points="272.4,279.7 271.1,287.5 215.4,279.5 216.6,271.6 				"/>
			</g>
			<g>
				<polygon class="st1" points="244.3,251.5 252.3,252.7 243.5,307.6 235.5,306.5 				"/>
			</g>
		</g>
		<g>
			<g>
				<path class="st2" d="M228.5,185"/>
			</g>
		</g>
		<g>
			<g>
				
					<ellipse transform="matrix(0.8312 -0.556 0.556 0.8312 -82.1298 126.7596)" class="st1" cx="167.7" cy="198.6" rx="30.4" ry="0.3"/>
			</g>
		</g>
		<g>
			<g>
				<path class="st1" d="M234.2,171.4c0.1,0.1-18.6,12.8-41.8,28.2c-23.1,15.5-42,27.9-42.1,27.8c-0.1-0.1,18.6-12.8,41.8-28.2
					C215.3,183.7,234.1,171.3,234.2,171.4z"/>
			</g>
		</g>
		<g>
			<g>
				<path class="st1" d="M242.5,183.8c0.1,0.1-18.6,12.8-41.8,28.2c-23.1,15.5-42,27.9-42.1,27.8c-0.1-0.1,18.6-12.8,41.8-28.2
					C223.6,196.1,242.4,183.6,242.5,183.8z"/>
			</g>
		</g>
		<g>
			<g>
				<path class="st1" d="M250.8,196.1c0.1,0.1-18.6,12.8-41.8,28.2c-23.1,15.5-42,27.9-42.1,27.8c-0.1-0.1,18.6-12.8,41.8-28.2
					C231.9,208.5,250.7,196,250.8,196.1z"/>
			</g>
		</g>
		<g>
			<g>
				<path class="st1" d="M259,208.5c0.1,0.1-18.6,12.8-41.8,28.2c-23.1,15.5-42,27.9-42.1,27.8c-0.1-0.1,18.6-12.8,41.8-28.2
					C240.1,220.8,258.9,208.4,259,208.5z"/>
			</g>
		</g>
	</g>
	<g>
		<g>
			
				<rect x="537.7" y="250.4" transform="matrix(0.8312 -0.556 0.556 0.8312 -85.3099 386.8)" class="st0" width="113.4" height="166.9"/>
		</g>
		<g>
			<g>
				<polygon class="st1" points="639.2,365.2 638.1,371.8 591.3,365 592.4,358.4 				"/>
			</g>
			<g>
				<polygon class="st1" points="615.6,341.6 622.3,342.5 614.9,388.7 608.2,387.7 				"/>
			</g>
		</g>
		<g>
			<g>
				<path class="st2" d="M602.3,285.7"/>
			</g>
		</g>
		<g>
			<g>
				
					<ellipse transform="matrix(0.8312 -0.556 0.556 0.8312 -72.1501 356.6255)" class="st1" cx="551.2" cy="297.1" rx="25.5" ry="0.3"/>
			</g>
		</g>
		<g>
			<g>
				
					<ellipse transform="matrix(0.8312 -0.556 0.556 0.8312 -69.0232 368.2296)" class="st1" cx="571.9" cy="297.8" rx="42.3" ry="0.3"/>
			</g>
		</g>
		<g>
			<g>
				
					<ellipse transform="matrix(0.8312 -0.556 0.556 0.8312 -73.6247 373.8451)" class="st1" cx="578.9" cy="308.2" rx="42.3" ry="0.3"/>
			</g>
		</g>
		<g>
			<g>
				
					<ellipse transform="matrix(0.8312 -0.556 0.556 0.8312 -78.2262 379.4594)" class="st1" cx="585.8" cy="318.6" rx="42.3" ry="0.3"/>
			</g>
		</g>
		<g>
			<g>
				
					<ellipse transform="matrix(0.8312 -0.556 0.556 0.8312 -82.8277 385.0745)" class="st1" cx="592.8" cy="328.9" rx="42.3" ry="0.3"/>
			</g>
		</g>
	</g>
	<g>
		<g>
			
				<rect x="295.8" y="90.7" transform="matrix(0.8818 0.4716 -0.4716 0.8818 125.1062 -146.1305)" class="st0" width="116.6" height="171.7"/>
		</g>
		<g>
			<g>
				<polygon class="st1" points="347.4,232.4 340.9,234.6 324.3,188.8 330.9,186.6 				"/>
			</g>
			<g>
				<polygon class="st1" points="357.4,199.5 359.8,206.1 314.3,221.7 312,215.1 				"/>
			</g>
		</g>
		<g>
			<g>
				<path class="st2" d="M401.7,160.4"/>
			</g>
		</g>
		<g>
			<g>
				
					<ellipse transform="matrix(0.4716 -0.8818 0.8818 0.4716 88.2205 386.4575)" class="st1" cx="366.6" cy="119.6" rx="0.3" ry="26.2"/>
			</g>
		</g>
		<g>
			<g>
				
					<ellipse transform="matrix(0.4716 -0.8818 0.8818 0.4716 76.3773 404.8419)" class="st1" cx="376" cy="138.7" rx="0.3" ry="43.5"/>
			</g>
		</g>
		<g>
			<g>
				
					<ellipse transform="matrix(0.4716 -0.8818 0.8818 0.4716 63.182 405.485)" class="st1" cx="369.9" cy="150" rx="0.3" ry="43.5"/>
			</g>
		</g>
		<g>
			<g>
				
					<ellipse transform="matrix(0.4716 -0.8818 0.8818 0.4716 49.9875 406.129)" class="st1" cx="363.9" cy="161.4" rx="0.3" ry="43.5"/>
			</g>
		</g>
		<g>
			<g>
				
					<ellipse transform="matrix(0.4716 -0.8818 0.8818 0.4716 36.7926 406.7723)" class="st1" cx="357.8" cy="172.7" rx="0.3" ry="43.5"/>
			</g>
		</g>
	</g>
	<rect x="394.2" class="st3" width="2.6" height="44"/>
</g>
<g id="Background_Simple" class="st4">
	<path class="st5" d="M150.7,164.4c-8.5,67.1,25.9,135.9,80.3,176.1s125.9,53.5,192.9,43.9c47.8-6.8,95.2-25.6,128.9-60.2
		c33.7-34.6,51.5-86.6,37.9-132.9c-5.1-17.5-15.2-34.5-31.2-43.2c-25.5-14-57-3.7-84.2,6.8c-27.2,10.5-58.6,20.9-84.2,7
		c-19.7-10.7-29.7-32.7-44.2-49.8c-24.5-29.1-64.3-44.6-102-39.6c-4.7,0.6-9.4,1.6-14,2.8c-40.1,10.8-70.5,43.7-79.2,84.4
		L150.7,164.4z"/>
</g>
<g id="Lamp">
	<g>
		<g>
			<g>
				<path class="st6" d="M335.2,97.2h120.5c0,0-11.1-53.2-61.1-53.2C350.1,44,335.2,97.2,335.2,97.2z"/>
			</g>
		</g>
		<rect x="394.2" class="st6" width="2.6" height="44"/>
	</g>
</g>
<g id="Floor">
	<g>
		<g>
			<path class="st7" d="M663.7,439.8c0,0.1-129.3,0.3-288.7,0.3c-159.5,0-288.7-0.1-288.7-0.3c0-0.1,129.2-0.3,288.7-0.3
				C534.4,439.6,663.7,439.7,663.7,439.8z"/>
		</g>
	</g>
</g>
<g id="Plant">
	<g>
		<g>
			<path class="st6" d="M118.3,377.2c3.4,0.1,6.6,2,8.8,4.5c2.2,2.5,3.6,5.7,4.5,9c1.7,6.3,0.7,13.8-1.2,20.1
				c-6.8-2.4-11.1-9.7-13-13.6C114.4,391.1,112.6,378.3,118.3,377.2"/>
		</g>
		<g>
			<path class="st6" d="M140.2,418.5c-2.2-3.1-2.2-7.4-0.5-10.8c1.7-3.4,5-5.8,8.6-6.9c1.7-0.5,3.6-0.7,5.1,0.2
				c1.4,0.9,1.9,2.7,1.8,4.3c-0.2,1.6-1,3.1-2,4.4C149.9,414.2,145.8,418,140.2,418.5"/>
		</g>
		<g>
			<g>
				<path class="st7" d="M141,439.6c0,0-0.1-0.5-0.3-1.3c-0.2-0.9-0.4-2.1-0.7-3.6c-0.5-3-1.4-7.3-0.7-12.1
					c0.6-4.7,2.5-8.8,4.5-11.2c1-1.2,1.9-2.1,2.6-2.6c0.3-0.3,0.6-0.5,0.8-0.6c0.2-0.1,0.3-0.2,0.3-0.2c0.1,0.1-1.6,1.1-3.5,3.6
					c-1.9,2.4-3.7,6.4-4.3,11.1c-0.6,4.7,0.2,8.9,0.6,12c0.2,1.5,0.4,2.8,0.6,3.6C141,439.1,141,439.6,141,439.6z"/>
			</g>
		</g>
		<g>
			<g>
				<path class="st7" d="M120.5,386.8c0,0,0.1,0.2,0.3,0.5c0.2,0.4,0.4,0.9,0.7,1.5c0.6,1.3,1.5,3.3,2.5,5.7
					c2.1,4.8,4.8,11.4,7.7,18.9c2.9,7.4,5.3,14.2,7,19.1c0.9,2.5,1.5,4.5,2,5.9c0.2,0.7,0.4,1.2,0.5,1.6c0.1,0.4,0.2,0.6,0.1,0.6
					c0,0-0.1-0.2-0.2-0.5c-0.2-0.4-0.3-0.9-0.6-1.6c-0.5-1.4-1.2-3.4-2.1-5.8c-1.8-4.9-4.3-11.6-7.2-19.1
					c-2.9-7.4-5.6-14.1-7.6-18.9c-1-2.4-1.8-4.3-2.3-5.7c-0.3-0.6-0.5-1.2-0.6-1.6C120.5,387,120.5,386.8,120.5,386.8z"/>
			</g>
		</g>
		<g>
			<path class="st6" d="M132.9,425.6c-4-6.9-11.6-11.6-19.5-12.1c-2-0.1-4.5,0.2-5.4,2c-0.9,1.8,0.3,4,1.7,5.5
				c5.7,6.2,15.4,8.4,23.3,5.2"/>
		</g>
		<g>
			<g>
				<path class="st7" d="M116.4,418.9c0,0,0.5,0,1.3,0c0.4,0,0.9,0.1,1.5,0.2c0.6,0.1,1.2,0.2,1.9,0.4c0.7,0.2,1.5,0.3,2.3,0.6
					c0.8,0.2,1.7,0.6,2.6,1c1.8,0.8,3.6,1.8,5.4,3.2c1.8,1.4,3.3,2.9,4.5,4.4c0.6,0.8,1.1,1.5,1.6,2.3c0.5,0.7,0.8,1.4,1.2,2.1
					c0.4,0.6,0.6,1.3,0.8,1.8c0.2,0.5,0.4,1,0.5,1.4c0.2,0.8,0.4,1.2,0.3,1.2c-0.1,0-0.6-1.7-1.9-4.3c-0.4-0.6-0.7-1.3-1.2-2
					c-0.4-0.7-1-1.4-1.6-2.2c-1.2-1.5-2.7-3-4.4-4.3c-1.8-1.3-3.6-2.4-5.3-3.2c-0.9-0.4-1.7-0.7-2.5-1c-0.8-0.3-1.6-0.5-2.3-0.7
					C118.2,419.1,116.4,419,116.4,418.9z"/>
			</g>
		</g>
	</g>
</g>
<g id="Character">
	<g>
		<g>
			<g>
				<path class="st7" d="M570.4,105.5c-2.9,0.7-4.4,4.1-4.7,7.1c-0.3,3,0.1,6.2-1.2,8.9c-1.4,3.1-4.8,5.4-4.9,8.8
					c-0.1,2.1,1.2,4,1.1,6.1c-0.1,3.4-3.6,6-3.7,9.4c-0.1,2.4,1.5,4.8,1.1,7.2c-0.3,1.9-1.8,3.4-2.4,5.2c-1.2,3.6,1.2,7.5,4.4,9.6
					c3.6,2.3,8.2,2.8,12.2,1.5c4-1.3,7.4-4.4,9-8.3c1.8-4.3,1.4-9.2,1-13.8c-1.2-14.5-2.1-29-2.7-43.6"/>
			</g>
			<g>
				<g>
					<path class="st8" d="M561.8,156.7c-0.1-0.1,0.8-0.3,1.3-1.6c0.3-0.6,0.4-1.5,0.3-2.4c0-1-0.4-2-0.7-3.2
						c-0.3-1.2-0.8-2.6-0.5-4.1c0.3-1.6,1.4-2.8,2.4-4.1c0.5-0.6,1-1.3,1.4-2.1c0.3-0.7,0.4-1.6,0.2-2.4c-0.5-1.6-2.1-2.8-2.9-4.7
						c-0.4-0.9-0.4-2-0.2-2.9c0.2-0.9,0.6-1.8,1-2.6c0.8-1.6,1.6-3.1,2-4.7c0.7-3.2,0.4-6.2,0.9-8.7c0.4-2.5,1.5-4.4,2.5-5.3
						c0.5-0.5,1-0.8,1.3-0.9c0.3-0.1,0.5-0.2,0.5-0.2c0,0.1-0.7,0.3-1.7,1.3c-1,1-1.9,2.8-2.3,5.2c-0.2,1.2-0.2,2.6-0.3,4
						c-0.1,1.5-0.1,3.1-0.5,4.7c-0.3,1.7-1.2,3.2-2,4.8c-0.8,1.6-1.4,3.4-0.8,5.1c0.6,1.7,2.2,2.9,2.9,4.8c0.3,0.9,0.2,1.9-0.2,2.7
						c-0.4,0.8-0.9,1.5-1.4,2.2c-1,1.3-2.1,2.5-2.3,3.9c-0.3,1.4,0.1,2.7,0.5,3.9c0.3,1.2,0.7,2.3,0.7,3.3c0,1-0.1,1.9-0.4,2.5
						c-0.3,0.7-0.7,1.1-1,1.3C562,156.6,561.8,156.7,561.8,156.7z"/>
				</g>
			</g>
		</g>
		<path class="st9" d="M554,180.4l-9,26l-37.6,2l-6.3,14l39.3,4c7.8,3.2,16.8-0.7,19.7-8.7l10.5-29.3L554,180.4z"/>
		<g>
			<g>
				<g>
					<path class="st9" d="M631.8,425.7c0,0-27.6-87.6-28.2-90.5c-0.5-2.6,10-65.6,11.3-81.9l-37.3,1.4c0,0,0,0.1,0,0.3l-15.8,0.9
						L576.1,435h17.2l-1.7-59.5c10.6,28.4,25.7,57.3,25.7,57.3L631.8,425.7z"/>
				</g>
				<g>
					<path class="st10" d="M592.2,396.9c0-0.5-0.2-19.9-0.2-19.9c-0.2,1.2-6.6-16.8-6.4-17.9C585.7,358.5,592.2,396.9,592.2,396.9z"
						/>
				</g>
			</g>
			<g>
				<path class="st10" d="M584.8,350.5c0,0-0.1,0.4-0.1,1.1c0,0.7,0,1.7,0,3c0,0.6,0.1,1.3,0.2,2c0.1,0.7,0.2,1.5,0.4,2.3
					c0.3,1.6,0.8,3.4,1.4,5.2c1.2,3.6,2.6,6.8,3.6,9.1c0.5,1,0.9,2,1.2,2.7c0.3,0.6,0.5,1,0.5,1c0,0-0.1-0.4-0.3-1
					c-0.2-0.7-0.6-1.6-1-2.8c-0.9-2.3-2.2-5.5-3.4-9.1c-0.6-1.8-1.1-3.5-1.4-5.1c-0.2-0.8-0.3-1.6-0.4-2.3c-0.1-0.7-0.2-1.4-0.2-2
					c-0.1-1.2-0.2-2.2-0.2-2.9C584.9,350.9,584.9,350.5,584.8,350.5z"/>
			</g>
		</g>
		<g>
			<g>
				<g>
					<g>
						<path class="st8" d="M575.7,435.9l0-1.6l17.6-0.8l0,6.6l-1.1,0.1c-4.8,0.3-24.5,1.1-27.8,0.1
							C560.9,439.3,575.7,435.9,575.7,435.9z"/>
					</g>
				</g>
				<g>
					<g>
						<path class="st7" d="M593.6,439.8c0,0-0.1,0-0.3,0c-0.3,0-0.5,0-0.9,0.1c-0.9,0-1.9,0.1-3.2,0.1c-2.7,0.1-6.4,0.2-10.5,0.2
							c-4.1,0-7.8,0-10.5-0.1c-1.3,0-2.3-0.1-3.2-0.1c-0.3,0-0.6,0-0.9,0c-0.2,0-0.3,0-0.3,0c0,0,0.1,0,0.3,0c0.3,0,0.5,0,0.9,0
							c0.9,0,1.9,0,3.2,0.1c2.7,0,6.4,0.1,10.5,0.1c4.1,0,7.8-0.1,10.5-0.2c1.3,0,2.3-0.1,3.2-0.1c0.3,0,0.6,0,0.9,0
							C593.5,439.8,593.6,439.8,593.6,439.8z"/>
					</g>
				</g>
				<g>
					<g>
						<path class="st7" d="M570,440.3c-0.1,0-0.1-0.8-0.6-1.5c-0.5-0.8-1.1-1.2-1.1-1.2c0-0.1,0.8,0.3,1.3,1.1
							C570.1,439.5,570.1,440.4,570,440.3z"/>
					</g>
				</g>
				<g>
					<g>
						
							<ellipse transform="matrix(0.8424 -0.5389 0.5389 0.8424 -144.8978 378.621)" class="st7" cx="574.7" cy="437" rx="0.1" ry="0.9"/>
					</g>
				</g>
				<g>
					<g>
						
							<ellipse transform="matrix(0.6656 -0.7463 0.7463 0.6656 -133.109 575.8541)" class="st7" cx="576.1" cy="436.5" rx="0.1" ry="0.7"/>
					</g>
				</g>
				<g>
					<g>
						
							<ellipse transform="matrix(0.9999 -1.489185e-002 1.489185e-002 0.9999 -6.4187 8.6345)" class="st7" cx="576.6" cy="435.3" rx="0.9" ry="0.1"/>
					</g>
				</g>
				<g>
					<g>
						<path class="st7" d="M577.8,434.1c0,0.1-0.4,0.3-1,0.3c-0.6,0-1.1-0.1-1.1-0.1c0-0.1,0.5,0,1-0.1
							C577.3,434.2,577.8,434.1,577.8,434.1z"/>
					</g>
				</g>
				<g>
					<g>
						<path class="st7" d="M574.6,436.2c0,0-0.4,0.1-1.1,0c-0.3,0-0.8-0.1-1.2-0.3c-0.2-0.1-0.4-0.1-0.7-0.3
							c-0.1-0.1-0.2-0.2-0.3-0.3c0-0.2,0-0.4,0.2-0.4c1.1-0.6,2.1,0,2.5,0.6c0.2,0.3,0.3,0.6,0.4,0.7c0,0.2,0,0.3,0,0.3
							c0,0-0.1-0.4-0.5-1c-0.2-0.3-0.5-0.5-1-0.6c-0.4-0.1-1-0.1-1.3,0.1c-0.2,0.1-0.1,0.3,0.1,0.5c0.2,0.1,0.4,0.2,0.6,0.3
							c0.4,0.1,0.8,0.2,1.2,0.3C574.2,436.2,574.6,436.1,574.6,436.2z"/>
					</g>
				</g>
				<g>
					<g>
						<path class="st7" d="M574.3,436.2c0,0-0.2-0.3-0.1-0.8c0-0.2,0.1-0.5,0.3-0.8c0.2-0.2,0.5-0.6,0.9-0.6c0.3,0,0.4,0.3,0.3,0.5
							c0,0.2-0.1,0.4-0.2,0.5c-0.2,0.3-0.4,0.5-0.5,0.7C574.7,436.1,574.4,436.2,574.3,436.2c0.1,0,0.3-0.2,0.6-0.6
							c0.2-0.2,0.3-0.4,0.5-0.7c0.2-0.2,0.3-0.7,0-0.7c-0.3,0-0.6,0.3-0.7,0.5c-0.2,0.2-0.3,0.5-0.3,0.7
							C574.2,435.9,574.3,436.2,574.3,436.2z"/>
					</g>
				</g>
				<g>
					<g>
						<path class="st7" d="M593.2,435c0,0-0.5,0-1.3,0.1c-0.8,0.1-1.9,0.4-2.8,1.2c-0.9,0.8-1.5,1.8-1.8,2.5
							c-0.3,0.8-0.3,1.3-0.3,1.2c0,0,0-0.1,0-0.4c0-0.2,0.1-0.6,0.2-0.9c0.2-0.8,0.8-1.8,1.8-2.6c1-0.8,2.1-1.1,2.9-1.2
							c0.4,0,0.7,0,1,0C593.1,434.9,593.2,435,593.2,435z"/>
					</g>
				</g>
				<g>
					<g>
						<path class="st7" d="M584.8,438.4c0,0.1-1.1,0.2-2.6,0.2c-1.4,0-2.6-0.2-2.6-0.2c0-0.1,1.1,0,2.6,0
							C583.6,438.4,584.8,438.3,584.8,438.4z"/>
					</g>
				</g>
				<g>
					<g>
						<path class="st7" d="M588.2,438.3c0,0-0.1,0.2-0.2,0.5c-0.1,0.3-0.2,0.5-0.2,0.5c-0.1,0-0.1-0.3,0-0.6
							C588,438.5,588.2,438.3,588.2,438.3z"/>
					</g>
				</g>
				<g>
					<g>
						
							<ellipse transform="matrix(0.6997 -0.7145 0.7145 0.6997 -135.3232 552.2073)" class="st7" cx="589.2" cy="437.1" rx="0.5" ry="0.1"/>
					</g>
				</g>
				<g>
					<g>
						<path class="st7" d="M591.4,436c0,0.1-0.2,0.1-0.5,0.1c-0.3,0.1-0.4,0.2-0.5,0.2c0,0,0.1-0.3,0.4-0.4
							C591.1,435.8,591.4,435.9,591.4,436z"/>
					</g>
				</g>
				<g>
					<g>
						
							<ellipse transform="matrix(0.931 -0.365 0.365 0.931 -118.179 246.3016)" class="st7" cx="592.4" cy="435.7" rx="0.3" ry="0.1"/>
					</g>
				</g>
			</g>
		</g>
		<g>
			<g>
				<g>
					<g>
						<path class="st8" d="M616.9,434.4l-0.7-1.5l15.7-7.9l2.8,6l-1,0.5c-4.3,2.2-21.9,11.1-25.3,11.5
							C604.7,443.5,616.9,434.4,616.9,434.4z"/>
					</g>
				</g>
				<g>
					<g>
						<path class="st7" d="M634.8,430.6c0,0-0.1,0.1-0.3,0.2c-0.2,0.1-0.5,0.3-0.8,0.4c-0.8,0.4-1.7,0.9-2.8,1.4
							c-2.4,1.2-5.7,2.8-9.5,4.5c-3.7,1.7-7.1,3.2-9.6,4.2c-1.2,0.5-2.1,0.9-2.9,1.2c-0.3,0.1-0.6,0.2-0.8,0.3
							c-0.2,0.1-0.3,0.1-0.3,0.1c0,0,0.1-0.1,0.3-0.1c0.2-0.1,0.5-0.2,0.8-0.3c0.8-0.3,1.8-0.8,2.9-1.3c2.5-1.1,5.9-2.5,9.6-4.2
							c3.7-1.7,7.1-3.3,9.5-4.4c1.1-0.5,2.1-1,2.9-1.4c0.3-0.1,0.5-0.3,0.8-0.4C634.7,430.6,634.8,430.6,634.8,430.6z"/>
					</g>
				</g>
				<g>
					<g>
						<path class="st7" d="M613.5,440.7c-0.1,0-0.4-0.6-1.2-1.1c-0.7-0.5-1.5-0.6-1.5-0.7c0-0.1,0.8-0.1,1.6,0.5
							C613.3,440,613.6,440.7,613.5,440.7z"/>
					</g>
				</g>
				<g>
					<g>
						
							<ellipse transform="matrix(0.5477 -0.8367 0.8367 0.5477 -85.7701 712.8461)" class="st7" cx="616.4" cy="435.8" rx="0.1" ry="0.9"/>
					</g>
				</g>
				<g>
					<g>
						
							<ellipse transform="matrix(0.3015 -0.9535 0.9535 0.3015 16.7384 892.3192)" class="st7" cx="617.4" cy="434.7" rx="0.1" ry="0.7"/>
					</g>
				</g>
				<g>
					<g>
						
							<ellipse transform="matrix(0.9061 -0.4232 0.4232 0.9061 -125.424 301.9904)" class="st7" cx="617.4" cy="433.5" rx="0.9" ry="0.1"/>
					</g>
				</g>
				<g>
					<g>
						<path class="st7" d="M618,431.9c0,0-0.3,0.4-0.8,0.7c-0.5,0.3-1,0.4-1,0.3c0-0.1,0.4-0.2,0.9-0.5
							C617.6,432.1,618,431.9,618,431.9z"/>
					</g>
				</g>
				<g>
					<g>
						<path class="st7" d="M616,435.1c0,0-0.4,0.2-1,0.5c-0.3,0.1-0.7,0.2-1.2,0.3c-0.2,0-0.5,0.1-0.7,0c-0.1,0-0.3-0.1-0.4-0.2
							c-0.1-0.1-0.1-0.3,0-0.5c0.7-1,2-0.8,2.6-0.5c0.3,0.2,0.5,0.4,0.6,0.5c0.1,0.2,0.2,0.3,0.2,0.3c0,0-0.3-0.4-0.9-0.7
							c-0.3-0.1-0.7-0.2-1.1-0.2c-0.4,0.1-0.9,0.3-1.2,0.6c-0.1,0.2,0,0.4,0.3,0.4c0.2,0,0.5,0,0.7,0c0.4,0,0.8-0.1,1.2-0.2
							C615.6,435.2,615.9,435,616,435.1z"/>
					</g>
				</g>
				<g>
					<g>
						<path class="st7" d="M615.7,435.2c0,0-0.3-0.2-0.4-0.7c-0.1-0.2-0.1-0.5-0.1-0.9c0.1-0.3,0.2-0.7,0.6-0.9
							c0.3-0.1,0.8,0.4,0.9,0.6c0.1,0.2-0.3,0.1-0.3,0.2c0,0.3-0.1,0.6-0.2,0.8C616,435,615.8,435.2,615.7,435.2
							c0-0.1,0.2-0.3,0.3-0.8c0.1-0.2,0.1-0.5,0.2-0.8c0-0.3,0-0.7-0.3-0.6c-0.3,0.1-0.4,0.5-0.5,0.7c-0.1,0.3,0,0.6,0,0.8
							C615.5,435,615.8,435.2,615.7,435.2z"/>
					</g>
				</g>
				<g>
					<g>
						<path class="st7" d="M632.5,426.4c0,0-0.5,0.2-1.2,0.6c-0.7,0.4-1.5,1.1-2.1,2.2c-0.5,1.1-0.6,2.2-0.6,3
							c0.1,0.8,0.3,1.3,0.2,1.3c0,0-0.1-0.1-0.1-0.3c-0.1-0.2-0.2-0.5-0.2-0.9c-0.1-0.8,0-2,0.5-3.1c0.6-1.1,1.5-1.9,2.2-2.3
							c0.4-0.2,0.7-0.3,0.9-0.4C632.3,426.4,632.5,426.4,632.5,426.4z"/>
					</g>
				</g>
				<g>
					<g>
						<path class="st7" d="M626.2,432.9c0,0-0.9,0.7-2.2,1.3c-1.3,0.6-2.4,0.9-2.4,0.9c0-0.1,1.1-0.5,2.3-1
							C625.1,433.4,626.1,432.8,626.2,432.9z"/>
					</g>
				</g>
				<g>
					<g>
						<path class="st7" d="M629.3,431.5c0.1,0,0,0.3,0,0.5c0,0.3,0,0.5,0,0.5c-0.1,0-0.2-0.2-0.2-0.5
							C629.1,431.7,629.2,431.4,629.3,431.5z"/>
					</g>
				</g>
				<g>
					<g>
						
							<ellipse transform="matrix(0.3456 -0.9384 0.9384 0.3456 8.5995 872.1452)" class="st7" cx="629.6" cy="429.9" rx="0.5" ry="0.1"/>
					</g>
				</g>
				<g>
					<g>
						<path class="st7" d="M631.2,428c0,0.1-0.2,0.2-0.4,0.3c-0.2,0.2-0.3,0.4-0.4,0.4c-0.1,0,0-0.3,0.2-0.5
							C630.9,428,631.2,428,631.2,428z"/>
					</g>
				</g>
				<g>
					<g>
						
							<ellipse transform="matrix(0.6997 -0.7144 0.7144 0.6997 -115.536 579.8903)" class="st7" cx="632" cy="427.4" rx="0.3" ry="0.1"/>
					</g>
				</g>
			</g>
		</g>
		<g>
			<g>
				<g>
					<g>
						<g>
							<g>
								<g>
									<g>
										<path class="st6" d="M612.6,223.6l-2.9-35.7l15,0.3c0,0,0.7-5.3-1.5-16.8c-1.4-7.1-6.1-11.4-11.4-14l0-0.1l-0.5-0.1
											c-6.7-3.1-13.8-3.6-13.8-3.6l-18.4,0.2c0,0-14.1-1.8-21.9,8.3c-3,3.9-12.3,30.4-12.3,30.4l22.1,10.7l-2.1-14.7
											c0,0,0.4,10.6,1.8,14c0.8,1.9,2.9,7.7,2.9,7.7l-0.3,17.6L612.6,223.6z"/>
									</g>
								</g>
							</g>
						</g>
					</g>
					<g>
						<polygon class="st6" points="602.4,182.8 599.6,194.4 625.5,194.4 623.8,174.9 						"/>
					</g>
					<g>
						<g>
							<path class="st7" d="M625.5,194.4c0-0.1-1.3-0.2-3.4-0.3c-2.1-0.1-5-0.2-8.3-0.2c-3.2,0-6.2,0.2-8.3,0.3
								c-2.1,0.2-3.4,0.3-3.4,0.4c0,0.1,1.3,0,3.4,0c2.1-0.1,5-0.1,8.3-0.2c3.2,0,6.1,0,8.3,0C624.2,194.5,625.5,194.5,625.5,194.4z
								"/>
						</g>
					</g>
					<g>
						<g>
							<path class="st7" d="M601.3,174.8c-0.1,0-0.1,1.1-0.1,3c0,1.8,0.1,4.4,0.2,7.1c0.1,2.8,0.2,5.3,0.4,7.1c0.1,1.8,0.2,3,0.3,3
								c0.1,0,0.1-1.1,0.1-3c0-1.8-0.1-4.4-0.2-7.1c-0.1-2.8-0.2-5.3-0.4-7.1C601.5,175.9,601.4,174.8,601.3,174.8z"/>
						</g>
					</g>
					<g class="st11">
						<path d="M577.8,184.9c0,0,5.7,42.6,21.9,41.4c0,0,7.3-0.1,9.6-4.9v-1.9L577.8,184.9z"/>
					</g>
				</g>
			</g>
			<g class="st11">
				<polygon points="601.3,177.3 598.2,198.1 600.2,201.8 603.5,194.6 602.1,194.6 				"/>
			</g>
			<g>
				<g>
					<path class="st7" d="M569.7,210.2c0,0-0.2-0.3-0.4-1c-0.3-0.7-0.6-1.6-1-2.8c-0.8-2.4-1.7-5.7-2.5-9.4
						c-0.7-3.7-1.1-7.2-1.2-9.7c-0.1-1.2-0.1-2.3-0.1-3c0-0.7,0-1.1,0.1-1.1c0.1,0,0.1,1.5,0.4,4c0.2,2.5,0.6,5.9,1.4,9.6
						c0.7,3.7,1.6,7,2.3,9.4c0.3,1.1,0.6,2.1,0.8,2.8C569.6,209.8,569.7,210.1,569.7,210.2z"/>
				</g>
			</g>
			<g>
				<g>
					
						<ellipse transform="matrix(0.9572 -0.2895 0.2895 0.9572 -39.1194 176.0496)" class="st7" cx="575.6" cy="220.3" rx="0.3" ry="2.2"/>
				</g>
			</g>
			<g>
				<g>
					<path class="st7" d="M578.4,222.2c-0.1,0-0.6-1.3-0.6-3.1c0-1.8,0.4-3.2,0.5-3.1c0.1,0,0,1.4,0,3.1
						C578.4,220.8,578.6,222.2,578.4,222.2z"/>
				</g>
			</g>
			<g>
				<g>
					
						<ellipse transform="matrix(0.447 -0.8945 0.8945 0.447 130.5043 606.9116)" class="st7" cx="556.1" cy="197.9" rx="0.3" ry="12.7"/>
				</g>
			</g>
		</g>
		<g>
			<g>
				<g>
					<g>
						<g>
							<g>
								<g>
									<g>
										<g>
											<path class="st9" d="M576.6,157.3c0.1-5.1,0.1-10.4,0.1-10.4s-6.5-1.3-7.6-9.8c-1.1-8.1,1.9-27.2,1.9-27.2l0,0
												c9.5-3.6,19.3-0.3,25.8,7.3l0,0l-1.6,41.1c-0.2,4.8-4.4,8.4-9.5,8.2h0C580.6,166.2,576.5,162.1,576.6,157.3z"/>
										</g>
									</g>
								</g>
								<g>
									<g>
										<g>
											<g>
												<path class="st7" d="M570.6,125.1c0,0.6,0.4,1.1,1,1.1c0.6,0,1.1-0.4,1.1-1c0-0.6-0.4-1.1-1-1.1
													C571.1,124.1,570.6,124.5,570.6,125.1z"/>
											</g>
										</g>
									</g>
									<g>
										<g>
											<g>
												<g>
													<path class="st7" d="M570.2,123.7c0.1,0.1,1-0.4,2.1-0.4c1.2,0,2,0.6,2.1,0.5c0.1-0.1-0.1-0.3-0.4-0.6
														c-0.4-0.3-1-0.6-1.7-0.6c-0.7,0-1.4,0.2-1.7,0.5C570.2,123.3,570.1,123.6,570.2,123.7z"/>
												</g>
											</g>
										</g>
									</g>
								</g>
								<g>
									<g>
										<g>
											<g>
												<path class="st7" d="M582.5,125.8c0,0.6,0.4,1.1,1,1.1c0.6,0,1.1-0.4,1.1-1c0-0.6-0.4-1.1-1-1.1
													C583,124.8,582.5,125.3,582.5,125.8z"/>
											</g>
										</g>
									</g>
									<g>
										<g>
											<g>
												<g>
													<path class="st7" d="M582.4,124.4c0.1,0.1,1-0.4,2.1-0.4c1.2,0,2,0.6,2.1,0.5c0.1-0.1-0.1-0.3-0.4-0.6
														c-0.4-0.3-1-0.6-1.7-0.6c-0.7,0-1.4,0.2-1.7,0.5C582.5,124.1,582.3,124.3,582.4,124.4z"/>
												</g>
											</g>
										</g>
									</g>
								</g>
								<g>
									<g>
										<g>
											<g>
												<path class="st7" d="M577.9,133c0-0.1-0.7-0.2-1.9-0.4c-0.3,0-0.6-0.1-0.6-0.3c-0.1-0.2,0.1-0.5,0.2-0.9
													c0.3-0.7,0.6-1.5,0.9-2.3c1.3-3.2,2.3-5.9,2.1-5.9c-0.1-0.1-1.3,2.5-2.6,5.7c-0.3,0.8-0.6,1.5-0.9,2.3
													c-0.1,0.3-0.3,0.7-0.2,1.2c0.1,0.2,0.3,0.4,0.5,0.5c0.2,0.1,0.4,0.1,0.5,0.1C577.2,133,577.9,133.1,577.9,133z"/>
											</g>
										</g>
									</g>
								</g>
								<g>
									<g>
										<g>
											<path class="st10" d="M576.7,146.9c0,0,5.7,0.5,11.5-2.7c0,0-2.9,5.8-11.4,4.8L576.7,146.9z"/>
										</g>
									</g>
								</g>
							</g>
						</g>
					</g>
				</g>
			</g>
			<g>
				<g>
					<path class="st7" d="M586.1,121c-0.2,0.4-1.1,0.2-2.1,0c-1-0.2-1.9-0.4-2-0.8c-0.1-0.4,0.9-1,2.3-0.7
						C585.6,119.8,586.4,120.7,586.1,121z"/>
				</g>
			</g>
			<g>
				<g>
					<path class="st7" d="M574.5,119.3c-0.1,0.4-1,0.6-2.1,0.6c-1.1,0-2.1,0-2.2-0.4c-0.1-0.4,0.8-1.1,2.1-1.1
						C573.6,118.3,574.6,118.9,574.5,119.3z"/>
				</g>
			</g>
			<g>
				<path class="st10" d="M577.9,135.8c-0.2-0.1-0.5,0.1-0.6,0.3c-0.1,0.3-0.1,0.6,0.2,0.8c0.2,0.2,0.6,0.2,0.8,0
					c0.2-0.2,0.3-0.6,0.2-0.8c-0.1-0.3-0.5-0.4-0.8-0.3"/>
			</g>
			<g>
				<g>
					<path class="st7" d="M578.2,135.9c0.1,0-0.2-0.3-0.7-0.2c-0.2,0.1-0.5,0.3-0.6,0.6c-0.1,0.3,0,0.8,0.4,1.1
						c0.4,0.3,0.8,0.2,1.1,0c0.3-0.2,0.4-0.6,0.4-0.8c-0.1-0.5-0.5-0.6-0.5-0.5c0,0.1,0.1,0.2,0.1,0.6c0,0.2-0.1,0.3-0.2,0.4
						c-0.1,0.1-0.4,0.1-0.5,0c-0.1-0.1-0.2-0.3-0.2-0.5c0-0.2,0.1-0.3,0.3-0.4C577.9,135.9,578.2,136,578.2,135.9z"/>
				</g>
			</g>
			<g>
				<g>
					<path class="st7" d="M592.9,127.2c-1,2.3-3.5,4.2-3.1,6.7c0.2,1.6,1.3,3.2,1.1,4.8c-0.3,2.1-2.4,3.5-2.7,5.5
						c-0.4,2.5,2.1,4.5,3,6.8c1.4,3.4-0.4,7.3-0.4,10.9c-0.1,5.7,4.8,11,10.4,11.4c2.3,0.2,4.9-0.5,6-2.5c1-1.6,0.8-3.7,1.4-5.5
						c0.9-2.7,3.4-4.6,4-7.4c1-5-5.1-9.2-4.7-14.3c0.2-2.2,1.5-4.1,2.1-6.2c0.8-2.8,0.1-5.9-1.8-8.1c-1.5-1.8-3.7-3-5-4.9
						c-1.5-2.2-1.5-5-2-7.6c-1.3-6.3-6.1-11.8-12.1-14c-6.1-2.2-13.2-1.1-18.3,2.8c0,0-1.5,6.6,5.3,7.7c6.8,1.1,9.9-0.2,10.7,2.5
						c0,0-0.8,3.2,2,6.2C591.5,125.1,594.1,124.5,592.9,127.2z"/>
				</g>
				<g>
					<g>
						<path class="st8" d="M603.7,172.9c0,0-0.2,0-0.6-0.1c-0.4-0.1-1-0.2-1.7-0.5c-1.4-0.5-3.5-1.7-5.2-3.9c-0.9-1.1-1.7-2.4-2.2-4
							c-0.6-1.5-0.9-3.3-0.9-5.1c0-1.8,0.2-3.8,0.7-5.7c0.3-1,0.6-1.9,1-2.9c0.4-1,0.8-1.9,1.1-2.9c0.3-1,0.2-2,0-2.9
							c-0.3-1-0.7-1.9-1.1-2.7c-0.4-0.9-0.9-1.8-1.2-2.7c-0.3-0.9-0.4-1.9-0.2-2.9c0.4-1.9,1.5-3.3,2.2-4.7c0.7-1.4,0.9-2.9,0.9-4.3
							c-0.1-2.7-1.3-4.7-2.2-5.9c-1-1.2-1.7-1.6-1.7-1.7c0,0,0.8,0.4,1.9,1.5c1,1.1,2.3,3.2,2.4,6c0.1,1.4-0.2,3-0.9,4.5
							c-0.7,1.5-1.8,2.9-2.1,4.6c-0.4,1.7,0.5,3.5,1.4,5.3c0.4,0.9,0.9,1.8,1.2,2.8c0.3,1,0.3,2.2,0,3.2c-0.3,1-0.8,2-1.1,2.9
							c-0.4,0.9-0.7,1.9-0.9,2.8c-0.5,1.9-0.8,3.8-0.7,5.6c0,3.6,1.2,6.8,2.9,8.9c1.7,2.2,3.6,3.3,5,3.9
							C602.9,172.8,603.8,172.9,603.7,172.9z"/>
					</g>
				</g>
				<g>
					<g>
						<path class="st8" d="M602.7,122.5c0,0-0.5,0.1-1.5,0.2c-1,0.1-2.4,0.2-4.1-0.1c-1.7-0.3-3.8-1.1-5.2-3.2
							c-0.7-1-0.9-2.2-1.4-3.4c-0.4-1.1-1.2-2.1-2.3-2.8c-2.2-1.4-4.8-1.6-7-1.8c-2.3-0.3-4.4-0.7-5.8-1.8c-1.5-1-2.2-2.4-2.4-3.3
							c-0.1-0.5-0.1-0.9-0.1-1.1c0-0.3,0.1-0.4,0.1-0.4c0.1,0-0.1,0.5,0.2,1.5c0.2,0.9,1,2.1,2.4,3.1c1.4,1,3.4,1.4,5.7,1.6
							c2.2,0.3,4.9,0.4,7.2,1.9c1.2,0.7,2.1,1.9,2.5,3.1c0.4,1.2,0.7,2.4,1.3,3.3c1.2,1.9,3.2,2.7,4.9,3.1c1.7,0.3,3.1,0.3,4,0.3
							C602.2,122.4,602.7,122.4,602.7,122.5z"/>
					</g>
				</g>
				<g>
					<g>
						<path class="st8" d="M600.3,114.3c0,0-0.4,0.2-1.2,0.2c-0.8,0-1.9-0.1-3.2-0.7c-0.6-0.3-1.3-0.7-1.9-1.3
							c-0.6-0.6-1.1-1.3-1.6-2.1c-0.9-1.5-1.8-3.4-3.6-4.2c-1.8-0.8-3.9-0.6-5.6-0.5c-1.8,0.2-3.4,0.2-4.8,0c-1.4-0.2-2.4-0.8-3-1.3
							c-0.3-0.3-0.5-0.5-0.6-0.7c-0.1-0.2-0.2-0.3-0.1-0.3c0,0,0.3,0.3,0.9,0.8c0.6,0.5,1.6,0.9,2.9,1.1c1.3,0.2,2.9,0.1,4.7-0.1
							c1.8-0.1,3.8-0.4,5.9,0.5c1,0.4,1.8,1.2,2.4,2c0.6,0.8,1,1.7,1.5,2.4c0.4,0.8,0.9,1.5,1.4,2c0.5,0.5,1.1,1,1.7,1.3
							c1.2,0.6,2.3,0.8,3,0.8C599.8,114.3,600.3,114.3,600.3,114.3z"/>
					</g>
				</g>
				<g>
					<g>
						<path class="st8" d="M606.7,170.8c-0.1,0,0.3-0.7,0.6-1.9c0.4-1.2,0.7-3.1,0.7-5.4c-0.1-2.3-0.6-5-2.1-7.6
							c-0.7-1.3-1.8-2.5-2.7-3.9c-0.4-0.7-0.8-1.5-1-2.4c-0.2-0.9-0.1-1.8,0.2-2.7c0.6-1.7,1.6-3.2,1.8-4.8c0.3-1.6-0.5-3-1.3-4.3
							c-0.4-0.7-0.8-1.3-1.1-2c-0.3-0.7-0.5-1.4-0.6-2.1c-0.2-1.4,0-2.7,0.1-3.8c0.3-2.3,0.1-4.2-0.5-5.3c-0.5-1.2-1.2-1.5-1.2-1.6
							c0,0,0,0,0.1,0.1c0.1,0,0.2,0.1,0.3,0.2c0.3,0.2,0.6,0.6,0.9,1.2c0.6,1.2,0.9,3.1,0.7,5.4c-0.1,1.2-0.2,2.4-0.1,3.7
							c0.1,1.3,0.8,2.6,1.6,3.9c0.4,0.7,0.8,1.3,1.1,2.1c0.3,0.8,0.4,1.7,0.3,2.5c-0.2,1.7-1.3,3.2-1.8,4.9
							c-0.3,0.8-0.4,1.6-0.2,2.4c0.2,0.8,0.5,1.5,0.9,2.2c0.9,1.4,2,2.6,2.7,3.9c1.5,2.7,2.1,5.5,2.1,7.9c0,2.3-0.4,4.2-0.8,5.4
							c-0.2,0.6-0.4,1.1-0.6,1.4C606.8,170.6,606.7,170.8,606.7,170.8z"/>
					</g>
				</g>
			</g>
		</g>
		<g>
			<g>
				<path class="st7" d="M566,357.1c0,0-6.7-63.8-7.1-87.4c-0.4-23.6,10.6-46.9,10.6-46.9l43.1-1.8c0,0,8.5,23.9,8.7,34
					c0.3,19.5-5.2,38.8-4.6,54.3l1.4,47.8"/>
			</g>
			<g>
				<g>
					<path class="st12" d="M619.6,278.6c0,0-0.2,0.2-0.7,0.5c-0.1,0.1-0.3,0.2-0.4,0.3c-0.1,0.1-0.3,0.3-0.4,0.4
						c-0.3,0.3-0.7,0.6-1,1.1c-1.4,1.7-2.4,4.7-3.4,8.5c-0.5,1.9-1.1,4-2.2,6.1c-0.3,0.5-0.6,1-1,1.5c-0.2,0.2-0.4,0.5-0.6,0.7
						l-0.7,0.7c-0.9,0.9-2,1.6-3.2,2.1c-2.4,1.1-5.1,1.6-7.6,2.8c-2.5,1.2-4.4,3.6-5.5,6.3c-1.2,2.7-1.9,5.6-3,8.2
						c-1,2.6-2.3,5.2-4.5,6.8c-2.1,1.7-4.8,2.1-7.1,2.2c-2.3,0.1-4.5,0.1-6.4,0.4c-1.9,0.3-3.6,0.9-4.8,1.8
						c-1.2,0.9-1.9,2.1-2.2,3.2c-0.3,1-0.3,1.9-0.2,2.5c0.1,0.6,0.3,0.8,0.2,0.8c0,0-0.2-0.3-0.3-0.8c-0.2-0.6-0.2-1.5,0.1-2.5
						c0.3-1.1,1-2.3,2.3-3.3c1.2-1,3-1.7,4.9-2c2-0.3,4.1-0.3,6.4-0.4c2.3-0.2,4.8-0.6,6.8-2.2c2-1.5,3.3-4,4.3-6.6
						c1-2.6,1.7-5.5,3-8.2c1.2-2.8,3.2-5.3,5.8-6.5c2.6-1.3,5.3-1.8,7.7-2.8c1.2-0.5,2.3-1.1,3.1-2l0.6-0.6c0.2-0.2,0.4-0.5,0.5-0.7
						c0.4-0.4,0.6-1,0.9-1.5c1.1-2,1.7-4.1,2.2-6c1-3.8,2.1-6.9,3.6-8.6c0.3-0.5,0.7-0.8,1-1.1c0.2-0.1,0.3-0.3,0.4-0.4
						c0.1-0.1,0.3-0.2,0.4-0.3C619.3,278.7,619.5,278.6,619.6,278.6z"/>
				</g>
			</g>
			<g>
				<g>
					<path class="st12" d="M619.8,249.1c0,0,0,0.3,0.1,0.9c0,0.6-0.1,1.4-0.3,2.4c-0.5,2.1-2,4.9-4.9,7.5c-1.4,1.3-3.1,2.6-5,3.7
						c-1.9,1.1-4.1,2.2-6.2,3.5c-2.2,1.2-4.4,2.6-6.4,4.5c-2,1.8-3.5,4.2-4.8,6.8c-1.4,2.5-2.6,5.1-4.2,7.4c-0.8,1.1-1.7,2.1-2.7,3
						c-1,0.9-2.1,1.6-3.3,2.2c-2.3,1.2-4.6,1.9-6.7,2.6c-2.1,0.7-4.1,1.2-5.9,2c-1.7,0.7-3.3,1.5-4.5,2.4c-1.2,0.9-2.2,1.8-2.8,2.6
						c-1.3,1.6-1.6,2.8-1.7,2.8c0,0,0.1-0.3,0.3-0.8c0.2-0.5,0.6-1.3,1.3-2.1c0.6-0.9,1.6-1.8,2.8-2.7c1.2-0.9,2.8-1.8,4.5-2.5
						c1.8-0.8,3.8-1.4,5.9-2c2.1-0.7,4.4-1.4,6.6-2.6c1.1-0.6,2.2-1.3,3.2-2.1c1-0.9,1.9-1.8,2.6-2.9c1.6-2.2,2.8-4.8,4.1-7.3
						c1.4-2.6,2.9-5,4.9-6.9c2-1.9,4.3-3.3,6.5-4.5c2.2-1.2,4.3-2.3,6.3-3.4c1.9-1.1,3.6-2.3,5-3.6c2.8-2.5,4.4-5.3,4.9-7.3
						C619.9,250.3,619.7,249.1,619.8,249.1z"/>
				</g>
			</g>
			<g>
				<g>
					<path class="st12" d="M559.1,273c0,0,0-0.1-0.1-0.2c0-0.1-0.1-0.3-0.2-0.6c-0.1-0.5-0.2-1.4,0.1-2.4c0.6-2,2.8-4.6,6.3-5.8
						c1.8-0.6,3.8-1,5.9-1.5c2.1-0.6,4.3-1.3,6-3.1c0.8-0.9,1.5-1.9,2.1-3c0.6-1.1,1-2.3,1.5-3.6c0.9-2.5,1.6-5.2,3.2-7.7
						c1.5-2.5,4-4.2,6.5-5.1c2.5-0.9,5.1-1.3,7.5-1.9c2.4-0.5,4.6-1.2,6.5-2.2c1.9-1.1,3.4-2.5,4.4-4c2.2-3,2.7-6.1,2.8-8.1
						c0-2.1-0.3-3.2-0.2-3.2c0,0,0.4,1.1,0.4,3.2c0,2.1-0.5,5.2-2.7,8.3c-1.1,1.5-2.6,3-4.5,4.1c-1.9,1.1-4.2,1.8-6.6,2.3
						c-2.4,0.6-4.9,1-7.4,1.9c-2.5,0.9-4.8,2.5-6.3,4.9c-1.5,2.4-2.2,5.1-3.1,7.6c-0.5,1.3-0.9,2.5-1.5,3.7
						c-0.6,1.2-1.4,2.2-2.2,3.1c-1.8,1.8-4.1,2.6-6.2,3.1c-2.1,0.5-4.1,0.9-5.9,1.5c-3.5,1.2-5.7,3.6-6.3,5.5
						c-0.3,1-0.3,1.8-0.2,2.3C559,272.8,559.1,273,559.1,273z"/>
				</g>
			</g>
			<g>
				<g>
					<path class="st12" d="M616.1,327c0,0,0,0.2,0.1,0.6c0,0.4,0,1-0.2,1.8c-0.4,1.5-1.5,3.6-3.8,5.4c-1.1,0.9-2.4,1.7-4,2.4
						c-1.5,0.7-3.2,1.2-5,1.7c-1.8,0.5-3.6,1.1-5.4,2c-1.8,0.8-3.5,2-4.9,3.6c-1.5,1.5-2.7,3.2-4.1,4.7c-1.4,1.5-3,2.7-4.6,3.6
						c-3.3,1.8-6.7,2.4-9.5,2.5c-2.8,0-5.1-0.6-6.5-1.1c-0.7-0.3-1.3-0.5-1.7-0.7c-0.4-0.2-0.6-0.3-0.6-0.3c0,0,0.2,0.1,0.6,0.2
						c0.4,0.2,0.9,0.4,1.7,0.6c1.5,0.5,3.7,1,6.5,0.9c2.8-0.1,6.1-0.7,9.3-2.5c1.6-0.9,3.1-2.1,4.5-3.5c1.4-1.5,2.6-3.1,4.1-4.7
						c1.5-1.6,3.2-2.9,5.1-3.7c1.8-0.9,3.7-1.4,5.5-2c1.8-0.5,3.4-1,5-1.7c1.5-0.6,2.8-1.4,3.9-2.2c2.2-1.7,3.4-3.7,3.8-5.2
						C616.2,327.9,616,327,616.1,327z"/>
				</g>
			</g>
		</g>
		<g>
			<path class="st9" d="M611.2,194.5l-8.3,0.2c-0.5,2.8-1.9,4.7-1.9,4.7c-7-12.1-12.4-28.3-13.7-34.8c0.2-0.7,0.4-1.4,0.7-2.2
				c0.3-0.9,0-2.7-0.1-3.7c-0.2-1.4-0.6-3.4-0.8-4.3c-0.4-2.8-0.8-3.2-1.8-2.9c-1.3,0.4,0.5,7.7-0.5,7.9c-0.6,0.1-1.3-2.4-1.5-4.5
				c-0.2-2.1-1.1-8.4-1.8-8.8c-1-0.6-1.9,0.4-1.6,2.4c0.3,2.1,0.6,8.2-0.5,8.3c-1.1,0.1-2-10.4-2-10.4s0.2-2.3-1.1-2.2
				c-2.3,0.1-0.5,11.1-0.3,12.2c0.1,0.7-1,0.9-1.1,0.1c-0.1-0.8-0.7-10.5-3-10.4c-1.8,0.1,1.4,9.1,0.4,11.2c-1,2.1-1.7-7.1-3.4-7
				c-0.6,0-1.1,0.2,0.1,5.4c0.6,2.8,2.4,8,4,12.2c2.7,14.4,14.4,60.7,32.9,52.2c10.3-4.7,14.5-25.7,14.5-25.7L611.2,194.5z"/>
			<g>
				<g>
					<path class="st10" d="M575.7,157.2c0,0,0.1,0,0.2,0c0.1,0,0.4-0.2,0.4-0.6c0-0.6-0.1-1.5-0.3-2.7c-0.1-1.2-0.5-2.6-0.5-4.3
						c0-0.8,0-1.7,0.1-2.7c0-0.5,0-1,0.1-1.4c0.1-0.5,0.4-1,0.7-0.9l0,0l0,0c0.4,0,0.6,0.3,0.7,0.7c0.1,0.4,0.2,0.9,0.1,1.3l0,0l0,0
						c0.2,2.6,0.5,5.4,1.1,8.3c0.1,0.4,0.2,0.7,0.3,1.1c0.1,0.2,0.1,0.4,0.2,0.6c0.1,0.1,0.1,0.2,0.2,0.3c0.1,0.1,0.2,0.2,0.4,0.3
						c0.4,0,0.5-0.3,0.6-0.5c0.1-0.2,0.1-0.4,0.2-0.6c0.1-0.4,0.1-0.8,0.2-1.2c0.1-1.6,0.1-3.3-0.1-5c0-0.9-0.3-1.7-0.1-2.5
						c0.1-0.4,0.2-0.8,0.5-0.9c0.1-0.1,0.3-0.1,0.4-0.1c0.1,0,0.2,0.1,0.2,0.1c0.1,0.1,0.1,0,0.1,0.1c0.3,0.7,0.5,1.6,0.7,2.5
						c0.2,0.9,0.3,1.8,0.5,2.7c0.1,0.9,0.3,1.8,0.4,2.8c0.1,0.9,0.2,1.9,0.5,2.8c0.1,0.5,0.3,0.9,0.5,1.4c0.1,0.2,0.2,0.5,0.4,0.7
						c0.1,0.1,0.3,0.3,0.6,0.2c0.3-0.1,0.4-0.3,0.4-0.4c0.2-0.6,0.1-1.1,0.1-1.6c0-0.5-0.1-1-0.1-1.5c-0.1-0.8-0.2-1.7-0.2-2.5
						c0-0.4,0-0.8,0-1.2c0-0.2,0.1-0.4,0.1-0.5c0-0.1,0.1-0.1,0.1-0.1c0,0,0,0,0,0l0.1,0c0.7-0.3,0.9,0.6,1.1,1.4
						c0.2,0.8,0.3,1.6,0.4,2.4c0.3,1.6,0.6,3.1,0.8,4.6c0.1,0.7,0.1,1.5-0.1,2.2c-0.2,0.7-0.5,1.4-0.7,2.1l0,0.1l0,0.1
						c1.2,5.4,2.9,10.2,4.5,14.5c1.6,4.3,3.2,8,4.6,11c1.4,3,2.6,5.3,3.5,6.9c0.4,0.8,0.8,1.3,1,1.8c0.2,0.4,0.4,0.6,0.4,0.6
						c0,0-0.1-0.2-0.3-0.6c-0.2-0.5-0.6-1.1-1-1.8c-0.8-1.6-2-4-3.4-7c-1.4-3-2.9-6.7-4.4-11c-1.5-4.3-3.2-9.1-4.4-14.4l0,0.1
						c0.2-0.7,0.5-1.4,0.7-2.1c0.3-0.8,0.2-1.6,0.1-2.4c-0.2-1.6-0.5-3.1-0.8-4.7c-0.2-0.8-0.2-1.6-0.4-2.4
						c-0.1-0.4-0.2-0.8-0.4-1.2c-0.1-0.2-0.3-0.4-0.6-0.6c-0.3-0.1-0.6-0.1-0.8,0l-0.2,0c-0.1,0-0.2,0.1-0.2,0.1
						c-0.1,0.1-0.2,0.2-0.3,0.4c-0.1,0.2-0.1,0.5-0.2,0.7c0,0.4,0,0.9,0,1.3c0,0.8,0.1,1.7,0.2,2.5c0,0.5,0.1,1,0.1,1.5
						c0,0.5,0,1-0.1,1.3c0,0.1-0.1,0.1,0,0.1l0,0c0,0,0,0.1,0,0l0,0c0,0,0,0,0,0c0,0,0,0,0,0c0,0,0,0-0.1-0.1
						c-0.1-0.1-0.2-0.3-0.3-0.5c-0.2-0.4-0.3-0.9-0.4-1.3c-0.2-0.9-0.4-1.8-0.5-2.8c-0.1-0.9-0.2-1.9-0.4-2.8
						c-0.1-0.9-0.3-1.8-0.5-2.7c-0.2-0.9-0.3-1.8-0.8-2.7c0-0.1-0.2-0.3-0.3-0.4c-0.1-0.1-0.2-0.1-0.4-0.2c-0.3-0.1-0.6,0-0.8,0.1
						c-0.5,0.3-0.6,0.8-0.7,1.3c-0.1,0.5-0.1,0.9,0,1.4c0.1,0.4,0.1,0.8,0.1,1.3c0.1,1.7,0.2,3.3,0.1,4.9c0,0.4-0.1,0.8-0.1,1.2
						c0,0.2-0.1,0.4-0.2,0.5c0,0.1-0.1,0.1-0.1,0.2c0,0.1-0.1,0-0.1,0.1c0.1-0.1,0,0,0-0.1c0,0-0.1-0.1-0.1-0.2
						c-0.1-0.2-0.1-0.3-0.2-0.5c-0.1-0.4-0.2-0.7-0.3-1.1c-0.6-2.9-0.9-5.7-1.1-8.3l0,0c0-0.5,0-1-0.2-1.5c-0.1-0.2-0.2-0.5-0.4-0.7
						c-0.2-0.2-0.5-0.3-0.7-0.3l0.1,0c-0.4-0.1-0.7,0.2-0.9,0.4c-0.2,0.2-0.2,0.5-0.3,0.8c-0.1,0.5-0.1,1-0.1,1.5c0,1,0,1.9,0,2.7
						c0,1.7,0.4,3.1,0.6,4.3c0.2,1.2,0.3,2.1,0.4,2.7c0.1,0.3-0.2,0.5-0.3,0.5C575.7,157.2,575.7,157.2,575.7,157.2z"/>
				</g>
			</g>
		</g>
		<path class="st9" d="M510.5,208.2c0,0-2.8-0.1-5.8,0.7c-5.2,1.4-14.1,6.8-14.4,13.4h6.5c0,0-3.6,7.7-2.6,7
			c2.8-1.9,8.3-7.4,8.3-7.4L510.5,208.2z"/>
		<g>
			<g>
				<g>
					
						<ellipse transform="matrix(0.9962 -8.757328e-002 8.757328e-002 0.9962 -4.7148 52.6593)" class="st7" cx="597.8" cy="80.1" rx="0.3" ry="12"/>
				</g>
			</g>
			<g>
				<g>
					
						<ellipse transform="matrix(0.5798 -0.8148 0.8148 0.5798 192.2378 537.6015)" class="st7" cx="617.3" cy="82.4" rx="17.2" ry="0.3"/>
				</g>
			</g>
			<g>
				<g>
					
						<ellipse transform="matrix(0.9795 -0.2013 0.2013 0.9795 -7.1901 128.3842)" class="st7" cx="627.6" cy="99.5" rx="11.7" ry="0.3"/>
				</g>
			</g>
		</g>
	</g>
</g>
<g id="Folder">
	<g>
		<g>
			<path class="st6" d="M299,234.5l-35.4,181.8l-4.6,23.8L495,439c10.6-0.1,20-9.5,23.4-23.4l41.9-171.6
				c2.6-10.6-3.1-21.6-11.1-21.6l-238.9,0.3C305,222.5,300.3,227.4,299,234.5z"/>
		</g>
		<g class="st13">
			<path d="M299,234.5l-35.4,181.8l-4.6,23.8L495,439c10.6-0.1,20-9.5,23.4-23.4l41.9-171.6c2.6-10.6-3.1-21.6-11.1-21.6l-238.9,0.3
				C305,222.5,300.3,227.4,299,234.5z"/>
		</g>
		<g>
			<path class="st6" d="M472.4,404l-25-201.4c-1-8.3-7.6-14.4-15.4-14.4l-54.8,0.2c-4.1,0-7.9,1.7-10.8,4.8l-26,27.7l-152.4,0.8
				c-9.3,0-16.5,8.9-15.2,18.8l23.2,186.2c1,8.2,7.6,14.4,15.3,14.4l265.6-0.5c29.6,0.6,32.4-8.1,32.4-8.1
				C475.4,439.8,472.4,404,472.4,404z"/>
		</g>
		<g class="st13">
			<polygon class="st14" points="357.8,363.7 348.9,373.3 279.9,311.3 288.8,301.6 			"/>
			<polygon class="st14" points="345.1,299.5 355,308.4 292.6,375.5 282.7,366.6 			"/>
		</g>
	</g>
</g>
<g id="Speech_Bubble">
	<g>
		<g>
			<g>
				<g>
					<path class="st6" d="M510.3,103.8c-0.6-0.3-1.1-0.9-1.1-1.6l-0.4-9.3c0-0.6,0.2-1.1,0.7-1.5c0.5-0.4,1-0.5,1.6-0.4
						c1.5,0.4,3.1,0,4.5-0.9c1.3-0.8,2.1-2.1,2.3-3.4c0.2-1.3-0.2-2.8-1.1-4c-1-1.3-2.5-2.2-3.9-2.4c-3-0.3-6.3,2-7.1,5
						c-0.3,1-1.3,1.6-2.3,1.3c-1-0.3-1.6-1.3-1.3-2.3c1.3-4.8,6.3-8.3,11.1-7.8c2.5,0.3,4.9,1.7,6.5,3.8c1.5,2,2.2,4.5,1.8,6.9
						c-0.4,2.3-1.8,4.5-3.9,5.9c-1.5,1-3.3,1.6-5.1,1.7l0.3,7.2c0,1-0.8,1.9-1.8,1.9C510.8,103.9,510.6,103.9,510.3,103.8z"/>
				</g>
			</g>
			<g>
				<g>
					
						<ellipse transform="matrix(0.9976 -6.856038e-002 6.856038e-002 0.9976 -6.1791 35.3242)" class="st6" cx="511.5" cy="107.7" rx="1.5" ry="1.5"/>
				</g>
			</g>
		</g>
		<g>
			<g>
				<g>
					<path class="st7" d="M478.2,90.7c0,0,0-0.2,0.1-0.6c0-0.4,0.1-1,0.2-1.8c0-0.8,0.2-1.7,0.5-2.9c0.1-0.6,0.2-1.2,0.4-1.8
						c0.2-0.6,0.4-1.3,0.6-2c1-2.8,2.5-6.2,5-9.5c2.5-3.3,6-6.6,10.5-9.1c2.2-1.3,4.8-2.2,7.4-3.1c2.7-0.6,5.6-1.2,8.5-1.1
						c1.5-0.1,3,0.1,4.5,0.3c0.8,0.1,1.5,0.3,2.3,0.4c0.8,0.1,1.5,0.3,2.3,0.6c3.1,0.8,6.1,2.2,8.9,4.1c5.7,3.6,10.6,9.5,13.2,16.6
						c1.3,3.6,2,7.5,2,11.4c0.1,4-0.7,8-2.1,11.7l-0.5,1.1l-0.1,0.2l0.1,0.1c2.5,5.8,5,11.4,7.4,16.9l0.4-0.5
						c-5.2-2-10.2-3.9-15-5.8l-0.2-0.1l-0.1,0.1c-4.2,4-9.1,6.7-14.1,8.2c-5,1.4-10.1,1.5-14.7,0.7c-4.6-0.8-8.8-2.6-12.3-4.9
						c-3.5-2.3-6.3-5-8.4-7.9c-2.1-2.8-3.5-5.8-4.6-8.4c-0.9-2.7-1.5-5-1.8-7c-0.1-1-0.2-1.8-0.3-2.6c0-0.7,0-1.4,0-1.9
						c0-0.5,0-0.9,0-1.2C478.2,90.8,478.2,90.7,478.2,90.7c0,0,0,0.1,0,0.4c0,0.3,0,0.7,0,1.2c0,0.5,0,1.2,0,1.9
						c0.1,0.8,0.2,1.6,0.3,2.6c0.2,2,0.8,4.4,1.7,7.1c1,2.6,2.4,5.6,4.6,8.5c2.2,2.9,5,5.7,8.5,8c3.5,2.3,7.7,4.2,12.4,5
						c4.7,0.9,9.8,0.8,15-0.6c5.1-1.4,10.2-4.2,14.4-8.3l-0.3,0.1c4.8,1.9,9.8,3.8,15,5.8l0.8,0.3l-0.3-0.8
						c-2.4-5.5-4.8-11.2-7.3-16.9l0,0.3l0.5-1.2c1.4-3.9,2.2-8,2.1-12c0-4-0.7-8-2-11.7c-2.7-7.3-7.7-13.2-13.5-16.9
						c-2.9-1.8-6-3.3-9.1-4.1c-0.8-0.3-1.6-0.4-2.3-0.6c-0.8-0.1-1.6-0.3-2.3-0.4c-1.6-0.1-3.1-0.3-4.6-0.3c-3-0.1-5.9,0.5-8.7,1.2
						c-2.7,0.8-5.3,1.8-7.5,3.1c-4.6,2.6-8.1,5.9-10.6,9.3c-2.5,3.4-4,6.8-4.9,9.7c-0.2,0.7-0.4,1.4-0.6,2c-0.2,0.6-0.3,1.3-0.4,1.8
						c-0.2,1.1-0.4,2.1-0.4,2.9c-0.1,0.8-0.1,1.4-0.1,1.8C478.2,90.5,478.2,90.7,478.2,90.7z"/>
				</g>
			</g>
		</g>
	</g>
	<g class="st15">
		<g>
			<g>
				<path class="st14" d="M390.5,233.3c0.1,0.9,1,1.6,2,1.5s1.6-1,1.5-2c-0.1-0.9-1-1.6-2-1.5C391,231.5,390.4,232.3,390.5,233.3z"
					/>
			</g>
		</g>
		<g>
			<g>
				<path class="st14" d="M428.9,194.5l-19.4,26.1c-6.1-2.9-12.9-3.9-19.6-2.9c-18.8,2.8-31.8,20.3-29,39.1
					c2.8,18.8,20.3,31.8,39.1,29c18.8-2.8,31.8-20.3,29-39.1c-1-6.7-3.9-12.9-8.4-17.9l5.4-7.2c0,0,0,0,0,0l14-18.9
					c1.1-1.5,1.6-3.3,1.3-5.1c-0.3-1.8-1.2-3.4-2.7-4.5c-1.5-1.1-3.3-1.6-5.1-1.3S430,193,428.9,194.5z M417.2,230.1
					C417.2,230.1,417.2,230.1,417.2,230.1c4.6,4.7,7.5,10.6,8.5,17.1c2.5,16.9-9.2,32.7-26.1,35.2s-32.7-9.2-35.2-26.1
					s9.2-32.7,26.1-35.2c6.5-1,13,0.1,18.8,3.2C412.2,225.8,414.9,227.8,417.2,230.1z M418.2,226.3c-1.7-1.5-3.6-2.9-5.5-4.1
					l4.1-5.5c2,1.2,3.8,2.6,5.5,4.1L418.2,226.3z M436.5,195.8c0.7,0.5,1.2,1.4,1.4,2.3c0.1,0.9-0.1,1.8-0.6,2.6L424.3,218
					c-1.7-1.5-3.6-2.9-5.5-4.1l12.9-17.4c0.5-0.7,1.3-1.2,2.3-1.4C434.9,195,435.8,195.3,436.5,195.8z"/>
			</g>
		</g>
		<g>
			<g>
				<path class="st14" d="M367.8,255.8c2.2,15,16.3,25.4,31.3,23.2c15-2.2,25.4-16.3,23.2-31.3S406,222.3,391,224.5
					S365.5,240.8,367.8,255.8z M418.8,248.2c1.9,13.1-7.2,25.4-20.3,27.4c-13.1,1.9-25.4-7.2-27.4-20.3s7.2-25.4,20.3-27.4
					C404.6,226,416.9,235.1,418.8,248.2z"/>
			</g>
		</g>
		<g>
			<g>
				<path class="st14" d="M384.9,233.7c-3.6,2-6.5,5.1-8.3,8.8c-1.9,3.8-2.6,8-2,12.2c0.1,0.9,1,1.6,2,1.5c0.9-0.1,1.6-1,1.5-2
					c-1-7,2.4-14,8.6-17.5c0.6-0.4,1-1.1,0.9-1.8c0-0.2-0.1-0.4-0.2-0.6C386.7,233.6,385.7,233.3,384.9,233.7z"/>
			</g>
		</g>
	</g>
</g>
</svg>
