<svg xmlns="http://www.w3.org/2000/svg" width="26" height="26"><g fill="#fff" fill-rule="evenodd" transform="translate(5 -1031.362)"><circle cx="37.045" cy="28.409" r="12.5" fill="#ef4c45" transform="matrix(1.04 0 0 1.04 -30.527 1014.817)"/><path style="line-height:normal;text-indent:0;text-align:start;text-decoration-line:none;text-decoration-style:solid;text-decoration-color:#000;text-transform:none;block-progression:tb;isolation:auto;mix-blend-mode:normal" fill="#df2209" d="M15.785 25.688a13 13 0 0 0 1.057-.268 13 13 0 0 0 1.22-.445 13 13 0 0 0 1.17-.567 13 13 0 0 0 1.108-.68 13 13 0 0 0 1.035-.785 13 13 0 0 0 .951-.886 13 13 0 0 0 .858-.977 13 13 0 0 0 .755-1.057 13 13 0 0 0 .647-1.127 13 13 0 0 0 .531-1.185 13 13 0 0 0 .408-1.234 13 13 0 0 0 .157-.698l-7.73-7.73A6.981 6.981 0 0 0 13 6a6.981 6.981 0 0 0-4.951 2.049 7.009 7.009 0 0 0 0 9.902l7.736 7.736z" color="#000" font-family="sans-serif" font-weight="400" transform="translate(-5 1031.362)"/><path style="line-height:normal;text-indent:0;text-align:start;text-decoration-line:none;text-decoration-style:solid;text-decoration-color:#000;text-transform:none;block-progression:tb;isolation:auto;mix-blend-mode:normal" d="M8 1a6.98 6.98 0 0 0-4.951 2.049 7.009 7.009 0 0 0 0 9.902 7.009 7.009 0 0 0 9.902 0 7.009 7.009 0 0 0 0-9.902A6.98 6.98 0 0 0 8 1Zm0 .994c1.535 0 3.07.588 4.244 1.762a5.994 5.994 0 0 1 0 8.488 5.994 5.994 0 0 1-8.488 0 5.994 5.994 0 0 1 0-8.488A5.983 5.983 0 0 1 8 1.994Zm2.453 3.027a.5.5 0 0 0-.344.153l-2.113 2.12L5.875 5.18a.5.5 0 0 0-.36-.149.5.5 0 0 0-.345.858L7.29 8.004l-2.115 2.121a.5.5 0 1 0 .707.707l2.115-2.123 2.121 2.115a.5.5 0 1 0 .707-.707l-2.12-2.115 2.112-2.121a.5.5 0 0 0-.365-.86z" color="#000" font-family="sans-serif" font-weight="400" overflow="visible" transform="translate(0 1036.363)"/></g></svg>