<svg xmlns="http://www.w3.org/2000/svg" width="25.707" height="25.707" viewBox="0 0 25.707 25.707">
  <path id="Icon_metro-earth2" data-name="Icon metro-earth2" d="M15,27.314A12.854,12.854,0,1,1,27.849,14.46,12.854,12.854,0,0,1,15,27.314ZM25.414,13.383a.08.08,0,0,0,.04-.056.391.391,0,0,0,.124.226c0,.008,0,.006,0,.018s.011,0,.017,0a.389.389,0,0,0,.245.092.4.4,0,0,0,.336-.194.193.193,0,0,1,.017.019c0-.013,0-.026,0-.039a.39.39,0,0,0,.053-.189.4.4,0,0,0-.4-.4.4.4,0,0,0-.331.186s0-.012-.009-.009a.363.363,0,0,0-.062-.192v.416a.42.42,0,0,1-.026.128ZM6.956,13.262c0-.121-.276-.328-.348-.328,0-.022-.112-.269-.155-.269,0-.084-.293-.459-.34-.295-.031.106.224.249.224.372.047,0,.247.378.286.443.435.736-.325.233-.325-.079a1.024,1.024,0,0,1-.251-.52,1.661,1.661,0,0,1-.212-.4c0-.235-.129-.347-.386-.347-.012-.023-.228-.327-.232-.327a.851.851,0,0,0-.27-.443,3.114,3.114,0,0,1-.057-.654A2.216,2.216,0,0,0,4.8,9.726a11.211,11.211,0,0,0,6.332,15.288c0-.4.035-.876.125-.876,0-.059.051-.308.1-.308a4.868,4.868,0,0,0,0-.52c-.057-.115.076-.262.116-.443.223-.112.065-1.232.233-1.232a7.631,7.631,0,0,0,.038-1.405c.043,0-.253-.314-.251-.308-.284,0-.482-.455-.482-.654a1.212,1.212,0,0,1-.1-.327c.065,0-.406-.688-.406-.674-.249-.138.014-.331.039-.558-.216-.071,0-.655.1-.655a.181.181,0,0,1,.116-.153c.048.192.272-.1.1-.1,0-.127-.014-.4,0-.462,0-.2-.174-.58-.308-.174-.145-.071-.509-.059-.541-.288.022-.113-.208-.345-.289-.385.076-.2-.391-.462-.56-.462,0-.043-.089-.023-.116-.077-.172,0-.211-.231-.406-.231-.224,0-.45-.153-.656-.153-.069-.137-.39-.084-.464-.231-.168,0-.234-.318-.239-.435-.007-.145-.122-.644-.323-.644ZM23.229,6.816a.04.04,0,0,1-.006.018c.012,0,.027.014.04.019C23.25,6.841,23.24,6.828,23.229,6.816Zm.242.266a.259.259,0,0,1,.043.137c.028,0,.042-.014.064-.02C23.543,7.159,23.5,7.122,23.47,7.082Zm.7,3.66c.013-.347-.289-.289-.385-.482-.1,0-.136-.077-.271-.077a.165.165,0,0,0-.207.063c-.206.079-.082-.1-.237-.1.007-.2-.071-.253-.29-.231-.125.283-.318.452-.289.77.092.021.076.042.058.134.123.006.868-.039.868-.116.026,0,.155.266.155.039.1,0,.158.243.406.173,0,.05.413-.172.192-.172Zm.039,4.1c.014-.071-.035-.1-.077-.174.11,0-.348-.849-.348-.982-.07-.035-.159-.277-.175-.366a.923.923,0,0,1-.231-.385,1.4,1.4,0,0,1-.366-.481c.138.015.347.043.347-.135-.093,0-.107-.115-.018-.115-.029-.118.063-.2.083-.3a2.178,2.178,0,0,0,.071-.417.636.636,0,0,0-.27.058c0,.078-.235-.019-.27-.019-.051-.1-.418.132-.521-.077-.166-.15-.121-.266-.175-.478-.027-.108-.174-.114-.263-.132-.251-.049-.07.3-.084.379.154,0-.1.191-.1.288-.26-.056-.174-.346-.327-.423-.046-.077-.01-.135-.116-.135,0-.1.055-.289-.058-.327,0-.05-.219-.07-.251-.135-.138,0-.46-.522-.558-.346-.062.112.052.14.076.231.2-.039.181.329.425.288a.669.669,0,0,0,.018.154c.181-.043.16.134.251.134-.066.088-.275-.14-.218.051.033.111.014.206-.129.314,0-.12-.01-.443-.135-.443-.085-.17-.338-.129-.445-.288-.087,0-.121-.27-.27-.288a.3.3,0,0,1-.174.077c-.081.163-.54.017-.54.039-.007,0-.257.612-.272.692-.028.173-.167.176-.209.34-.021.082-.525.043-.525.1a.514.514,0,0,1-.406-.462,3.624,3.624,0,0,1,.078-.693c.044.012.053.027.078.077.133-.05.444.033.444-.116q.194,0,.116.154c.121.022.329.053.329-.116-.071,0-.078-.006-.078-.077.231-.24-.174-.457-.174-.577-.082-.027-.249-.2-.13-.138.1.055.468.17.323-.074a.027.027,0,0,0,.018-.018c.041.029.214.206.214.039.047,0,.231-.116.077-.116.014-.087.011-.159.018-.212.245.132.108-.09.232-.173,0,.16.132-.077.212-.077.1-.142.314-.032.367-.193-.118-.039-.1-.334-.1-.442.142.023.3-.192.322-.044.008.057.015.214.044.236.211.111.155-.063.155-.173-.071,0-.165-.247-.174-.366-.058.008-.151.032-.174.076-.21,0-.353-.076-.521-.076a2.985,2.985,0,0,1-.193-.251c-.117-.2.117-.143.154-.153,0-.191.8-.157.831-.463-.262,0,.27-.443.27-.442.178-.152.272-.283.492-.3.093-.006,1.13-.292,1.13-.163.042,0,.18,0,.323.008A11.2,11.2,0,0,0,7.543,6.053a.285.285,0,0,1,.031.106c.105-.007.256-.075.29.059a.66.66,0,0,1-.154-.02c.037.3-.13.116-.27.116a.389.389,0,0,0-.128-.05c-.043.04-.088.078-.13.118,0,.013,0,.014.006.028.045,0,.022.07.15.112a2.863,2.863,0,0,0,.468.1A1.491,1.491,0,0,0,8.114,6.6c0-.016.265-.134.078-.134.026-.106-.022-.133-.136-.134.01-.112.277-.039.386-.039.084-.141,0-.124.076-.251.088-.157.194-.021.251-.171a.269.269,0,0,1,.194.19c.07.058.425.582.425.211.127.043.19.28.193.4.231-.034.251-.206.251-.386.053,0-.019-.086-.019-.116.086-.031.194.082.194-.038.037,0,.039.037.039.077.12.023.2-.014.27.012.051.018.025.28,0,.373-.029.117-.253.119-.253.174-.254.19.3.288.386.4a1.068,1.068,0,0,1-.251-.038c-.125,0-.429.133-.541.038.156,0,.208-.187.232-.366a.276.276,0,0,0-.353.178c-.067.236-.224-.01-.3.149-.031.01-.309.139-.309.1-.313.044-.231.31-.231.6.125.075.378.288.366.4.281.05.384.08.637.116a.307.307,0,0,0,.155.1c0,.165.15.136.289.136,0-.211.246.176.27.25-.034,0,.058.216.077.289-.039-.014-.051,0-.039.039.122.045.316.032.348-.1-.117,0-.078-.134-.078-.212a.145.145,0,0,1,.019-.269c0,.109.4-.068.174-.153a.433.433,0,0,0,0-.419c-.057-.067-.129,0-.157-.1.152-.038.04-.327.039-.462.048-.018.174.031.174,0,.149,0,.4.188.483-.039.248.113.051.221.309.135a1.115,1.115,0,0,0,.329.346c0,.014-.007.1.057.1,0,.062-.039-.035-.039.076.036,0,.232.039.232-.038.125,0,.212-.153.212-.269.078-.051.214.423.308.423.069.108.29.264.29.366.047.047.1.035.1.174.059,0,.174-.231.174-.019a.365.365,0,0,1,.232.211c-.139,0-.007.135-.079.135,0,.133-.3.027-.366.019-.092.414-.65.116-.987.223a1.15,1.15,0,0,0-.539.643c.215,0,.31-.186.5-.251.157,0,.187-.095.329-.134,0,.039.039.018.039.058-.275,0-.108.178-.027.307a.331.331,0,0,0,.17.144.764.764,0,0,0-.065.145h0c-.052.018-.154.055-.174.1-.311.035-.157.014-.137-.061.011.027.123,0,.118,0-.018-.093-.047-.08-.019-.134-.169,0-.251.077-.386.077-.022.046-.141.154-.193.154a.914.914,0,0,1-.232.4c0-.031-.275.173-.251.173-.061.1-.128.1-.155.25a1.3,1.3,0,0,0-.1.308c-.12.08-.164.4-.367.4-.125.247-.348.214-.348.539a1.7,1.7,0,0,1,.128.528c.029.136.074.277-.108.28-.013-.02-.14-.212-.116-.212a1.225,1.225,0,0,0-.154-.414c-.076-.107-.218.017-.329-.03-.047-.095-.368-.116-.482-.116.018.071.071.094.077.174a.438.438,0,0,1-.247.068c-.168-.023-.148-.154-.333-.136a.558.558,0,0,0-.5.568,1.7,1.7,0,0,0,0,.578c0,.163.135.281.135.4.131,0,.278.288.406.288.014.1-.064.118.154.116,0-.011.119-.075.135-.154-.151-.037,0-.231.1-.269,0,.137.193-.046.193-.058l.213-.077c0-.156.145.015.039.077-.1,0-.1.174-.154.174-.025.124-.074.231-.1.352-.037.149.084.164.045.3a2.415,2.415,0,0,0,.464,0,.136.136,0,0,0-.019-.077c.224,0,.019.423.155.423,0,.16.077.284.077.385a.256.256,0,0,1,.135.288c.129.017.4.05.4-.116.2,0,.209.133.194.269.389,0,.145-.385.308-.385.015-.063.042-.075.08-.033.08.043.14-.08.2-.118a.523.523,0,0,1,.1-.055c.055.033.059.023.084.06a.579.579,0,0,0,.3-.123c.139.017.094.316.354.334a.924.924,0,0,0,.436-.026c.022-.015.105.052.114.081.087,0,.08.076.117.074a.031.031,0,0,0,.039.018c.011.033.08.043.116.134,0,.084.174.1.174.153.125.063-.043.08.149.137a1.387,1.387,0,0,0,.316.094c.036-.137.153.018.213.018.031.063.047.015.076.077.179.149.061.092.135.251.086.056.113.252.137.366-.069,0-.02.264-.02.289-.084,0,.214.158.214-.039.122.02.2.153.289.153-.051.116.135.2.135.02.183.018.134.292.116.385.136,0,.175-.076.291-.09a.786.786,0,0,1,.423-.137.8.8,0,0,1,.8.8.793.793,0,0,1-.681.778,1.405,1.405,0,0,1-.1.109c0,.039-.009.423-.02.423,0,.077-.059.5-.116.5,0,.218-.142.257-.193.462-.117.087-.435.231-.484.327-.091,0-.158.077-.251.077-.013.027-.21.212-.174.212-.014.137.01.458-.063.548-.05.059-.121.053-.09.146-.108,0,.006.077-.165.077a.382.382,0,0,0-.305.284.428.428,0,0,1-.186.371c0,.055-.251.071-.251.212.023,0,0,.262,0,.288a.457.457,0,0,0-.289.134c-.252,0-.222.026-.386.135,0,.034-.023.153-.058.153,0,.2-.139.018-.251.116.044,0,.1.192.077.192,0,.17-.105.184-.212.308-.051.034-.1.174-.135.174,0,.114-.057.218-.057.327.024,0,0,.049.018.095.054-.015.055-.076.077-.076,0-.1.153.057.058.057-.08.121-.165.123-.213.289-.048,0-.09.047-.125.1a11.181,11.181,0,0,0,12.4-4.727,3.082,3.082,0,0,1,.088-.65c.079.058.137.166.193,0-.139-.027-.105-.076-.058-.192a.487.487,0,0,0,.247.066c.027-.05.047-.1.074-.153-.079-.061.03-.219.067-.142.02-.039.038-.079.056-.117-.009,0-.006,0-.019,0,0-.07.013-.061.059-.1a.071.071,0,0,0,0,.014,11.188,11.188,0,0,0,1.106-4.839c0-.057-.008-.112-.009-.169-.021.079-.06.164-.116.183,0,.051-.574.3-.54.4-.1,0-.456.1-.521.231a.9.9,0,0,0-.386.154c-.358,0-.29-.423-.463-.423Zm1.633-4.4h-.427s-.006,0-.01-.01c-.022,0-.112-.2-.077-.251a.571.571,0,0,1,.069,0c-.036-.088-.076-.175-.115-.263a.555.555,0,0,1-.283.142c0,.033-.171.366,0,.366a.058.058,0,0,0,0,.017.4.4,0,0,0,.034.8H25.2c.01.073.049.137.19.168.044.186.375.251.425.057-.14,0-.094-.134-.082-.225h.112a.4.4,0,1,0,0-.8Zm-1.17,5.223c.028,0,.214,0,.214-.036a1.963,1.963,0,0,0,.56-.078c0,.249-.21.388-.174.635-.139,0-.078.143-.078.192-.09.055-.1.157-.212.212,0,.112-.251.3-.325.392s-.335.292-.368.428c.009-.032-.46.488-.35.488,0,.1-.132.866.039.866,0,.067.145.713.057.713,0,.207-.135.334-.135.5-.066.045-.16.07-.193.136-.118,0-.175.251-.231.251,0,.268-.078.466-.078.77.022,0-.154.433-.154.461-.142.1-.5.439-.5.617,0,0-.251.352-.289.4a2.487,2.487,0,0,0-.657.154c-.124,0-.443.1-.521-.019,0-.122-.067-.277-.077-.443-.059,0-.069-.25-.135-.25a6.637,6.637,0,0,1-.309-.79,1.293,1.293,0,0,0-.077-.327c0-.265-.194-.486-.194-.731-.057,0-.175-.538-.116-.538a6.036,6.036,0,0,1,.14-.782,1.86,1.86,0,0,0-.082-.8c-.033,0-.144-.184-.155-.231a.585.585,0,0,1-.212-.5,1.3,1.3,0,0,0,.116-.693.863.863,0,0,0-.484-.058c-.125-.25-.961-.1-1.2-.1,0,.137-.582-.027-.637-.135-.142,0-.424-.3-.424-.443a1.585,1.585,0,0,1-.4-.789c-.135-.067-.094-.328-.02-.328a1.373,1.373,0,0,0-.079-.409c-.023-.081.079-.169.079-.265a1.161,1.161,0,0,1,.157-.679,2.624,2.624,0,0,0,.152-.287c.08-.2.1-.01.213-.19.1-.051.164-.223.271-.308.047-.062.048-.088,0-.135a1.159,1.159,0,0,0,.135-.365c.151-.21.044-.114.193-.1.055-.059.145-.212.231-.212a.244.244,0,0,1,.213-.116c0,.116.315-.038.348-.038a.889.889,0,0,1,.483-.231c0-.132.684.037.792.019v-.058c.146.035.413.621.386.751a1.505,1.505,0,0,1,.29,0c0,.125.235.155.341.161.149.007.585-.015.585-.219a.18.18,0,0,1,.194.211c.13.014.9.03.849.192.113,0,.142.194.251.194-.022.133.135.481.251.481a.606.606,0,0,0,.174.4,1.409,1.409,0,0,0,.4.616c-.072.137.11.249.155.385-.01,0,.039.2.1.231,0,.137.288.693.445.693.01.067-.148.1.058.113Zm-4.17-4.31c.03-.115.1-.026.16,0,.149.048.1,0,.207-.052C20.867,11.613,20.688,11.375,20.5,11.357Zm-.406-.578c.079,0,.1.353-.116.288,0-.088-.055-.25.059-.25C20.07,10.954,20.094,10.9,20.094,10.779Zm-.1-.231c.089.039.129.026.116-.039.117.039-.015.122-.039.212C20.015,10.663,20.034,10.642,20,10.549ZM17.931,8.835c-.19-.049.2-.105.212-.153a.09.09,0,0,1-.084-.123c.029-.067.076.08.142.047.078-.008.231-.125.153.1s-.153.4-.443.4c-.1-.1,0-.159.019-.27Zm.715-.789c.156,0,.019.116-.015.116.027.01,0,.1,0,.134.145,0,.147-.09.251-.116-.022.129-.166.154-.025.265.075.059.151.128.121.217.184,0,.211.177.174.385.1,0,.1,0,.1-.1.1.027.092.116,0,.116-.092.181-.332.173-.5.173,0-.14-.028-.149-.157-.109-.177.054-.039-.141-.035-.237.019,0,.4.018.174-.058-.012-.207-.059-.269-.251-.269,0-.141-.05-.131-.073-.286-.033-.229.179.016.247-.234ZM18.588,9.3c0,.047-.1.085-.116.018.018.006.026,0,.018-.018h.1ZM17,7.23h-.8a.4.4,0,0,1,0-.8H17a.4.4,0,1,1,0,.8Zm-4.68,7.11c.045,0,.1.018.1.058C12.362,14.4,12.287,14.453,12.324,14.34Zm-.733.039c-.032.061-.292.051-.329-.02.1,0,.171.039.27,0,0-.053-.044-.1-.077-.153.105,0,.223.08.367.077,0-.089-.039.019,0-.1a.451.451,0,0,1,.212.211,2.866,2.866,0,0,0-.443-.018Zm-.85-.462a.541.541,0,0,1-.348-.174c.1,0,.19.043.251-.058.245.025.267.194.464.194.037.065.247.214.044.234A.446.446,0,0,1,10.741,13.917Zm.154.539c-.071,0-.19.031-.135-.116C10.855,14.353,10.9,14.392,10.9,14.456Zm.135-.019-.116.019C10.926,14.367,11.01,14.267,11.03,14.437Zm.714.846c-.015.054-.013.057-.076.057.006-.025.012-.05.018-.076l.058.019Zm-1.738-1.6.058.019c.025.1.077.048.135.019C10.2,13.836,9.941,13.868,10.007,13.686Z" transform="translate(-2.142 -1.607)" fill="#fff"/>
</svg>